<svg xmlns="http://www.w3.org/2000/svg" width="422.0666931152344" height="98.48222839355469" viewBox="0 0 390 91" class="looka-1j8o68f"><defs id="SvgjsDefs13788"></defs><g id="SvgjsG13789" featurekey="symbolGroupContainer" transform="matrix(1,0,0,1,0,0)" fill="#004aac"><rect y="0" height="1" width="1" opacity="0"></rect><rect y="86" width="100" height="5"></rect></g><g id="SvgjsG13790" featurekey="symbolFeature-0" transform="matrix(1.1185682135704738,0,0,1.1185682135704738,0,18)" fill="#004aac"><path xmlns="http://www.w3.org/2000/svg" d="M30.624,0l-1.91,0.867c-1.421,0.099-2.773,0.443-4.109,1.049c-0.25,0.113-0.501,0.238-0.749,0.369  c-0.519,0.276-1.042,0.598-1.555,0.956c-0.994,0.694-1.98,1.542-3.015,2.59c-0.421,0.427-0.844,0.88-1.292,1.385  c-0.917,1.034-1.806,2.134-2.629,3.168c-0.199,0.251-0.398,0.501-0.597,0.752c-0.198,0.25-0.396,0.5-0.595,0.75  c-0.809,1.015-1.679,2.093-2.569,3.096c-0.427,0.481-0.829,0.912-1.229,1.317c-0.958,0.972-1.864,1.752-2.769,2.385  C7.15,19.002,6.688,19.287,6.23,19.53c-1.57,0.834-3.16,1.24-4.874,1.243L0,20.775l11.412,25.15l0.565-0.001  c1.708-0.002,3.371-0.366,4.944-1.079c0.25-0.113,0.501-0.237,0.75-0.369c0.519-0.275,1.042-0.598,1.555-0.955  c0.993-0.695,1.979-1.541,3.014-2.592c0.422-0.427,0.844-0.88,1.292-1.385c0.917-1.032,1.806-2.133,2.629-3.168  c0.197-0.248,0.394-0.496,0.591-0.745c0.2-0.253,0.4-0.505,0.601-0.757c0.808-1.015,1.677-2.092,2.569-3.096  c0.428-0.481,0.829-0.913,1.229-1.319c0.959-0.972,1.865-1.752,2.77-2.383c0.456-0.318,0.918-0.604,1.375-0.845  c1.474-0.784,2.963-1.188,4.557-1.239l10.824,23.854l2.128-0.965L30.624,0z M29.022,2.61c0.819,1.805,1.638,3.609,2.457,5.415  c-1.894,0.157-3.573,0.788-5.109,1.734c-0.818-1.805-1.638-3.609-2.457-5.415C25.449,3.398,27.128,2.768,29.022,2.61z M26.375,9.765  c0.819,1.806,1.638,3.61,2.457,5.415c-1.536,0.946-2.929,2.207-4.25,3.626c-0.819-1.805-1.638-3.609-2.457-5.414  C23.446,11.973,24.838,10.711,26.375,9.765z M19.665,7.968c0.819,1.805,1.638,3.61,2.457,5.415  c-1.322,1.419-2.571,2.996-3.822,4.573c-0.818-1.805-1.638-3.61-2.457-5.415C17.094,10.964,18.344,9.388,19.665,7.968z   M18.306,17.961c0.819,1.805,1.638,3.61,2.457,5.415c-1.25,1.577-2.5,3.154-3.822,4.573c-0.819-1.806-1.638-3.61-2.457-5.415  C15.805,21.115,17.056,19.539,18.306,17.961z M12.025,17.11c0.819,1.805,1.638,3.61,2.457,5.415  c-1.321,1.419-2.714,2.681-4.25,3.627c-0.819-1.805-1.638-3.61-2.457-5.415C9.311,19.791,10.704,18.53,12.025,17.11z M5.127,27.892  c1.894-0.157,3.573-0.787,5.109-1.734c0.819,1.806,1.638,3.609,2.457,5.415c-1.537,0.945-3.216,1.576-5.109,1.734  C6.765,31.501,5.946,29.697,5.127,27.892z M12.504,44.151c-0.819-1.806-1.638-3.609-2.457-5.415c1.895-0.157,3.574-0.788,5.11-1.734  c0.819,1.806,1.638,3.609,2.457,5.415C16.078,43.363,14.398,43.993,12.504,44.151z M15.152,36.996  c-0.819-1.806-1.639-3.609-2.458-5.415c1.536-0.945,2.93-2.207,4.251-3.627c0.818,1.806,1.638,3.61,2.457,5.415  C18.081,34.788,16.688,36.049,15.152,36.996z M21.861,38.792c-0.819-1.806-1.638-3.609-2.457-5.415  c1.322-1.419,2.572-2.995,3.822-4.572c0.819,1.806,1.638,3.609,2.457,5.415C24.433,35.796,23.183,37.374,21.861,38.792z   M23.221,28.8c-0.819-1.806-1.638-3.61-2.457-5.415c1.25-1.578,2.5-3.154,3.821-4.573c0.819,1.805,1.638,3.61,2.457,5.415  C25.721,25.646,24.471,27.222,23.221,28.8z M29.502,29.651c-0.819-1.806-1.639-3.609-2.458-5.415  c1.322-1.419,2.715-2.681,4.251-3.627c0.818,1.805,1.638,3.61,2.457,5.415C32.216,26.97,30.823,28.232,29.502,29.651z   M31.291,20.603c-0.819-1.805-1.638-3.609-2.457-5.415c1.536-0.946,3.215-1.577,5.109-1.734c0.819,1.805,1.638,3.61,2.457,5.415  C34.506,19.026,32.826,19.657,31.291,20.603z"></path><path xmlns="http://www.w3.org/2000/svg" d="M88.043,20.773c-1.713-0.003-3.303-0.409-4.874-1.243c-0.456-0.244-0.919-0.528-1.373-0.845  c-0.906-0.633-1.812-1.413-2.771-2.385c-0.399-0.406-0.803-0.836-1.229-1.317c-0.892-1.003-1.762-2.081-2.569-3.096  c-0.199-0.25-0.396-0.5-0.596-0.75c-0.198-0.251-0.397-0.501-0.596-0.752c-0.824-1.034-1.714-2.134-2.631-3.168  c-0.447-0.505-0.87-0.958-1.292-1.385c-1.033-1.049-2.02-1.896-3.014-2.59c-0.514-0.358-1.036-0.68-1.556-0.956  c-0.247-0.131-0.5-0.255-0.749-0.369c-1.335-0.606-2.687-0.951-4.107-1.049L58.777,0L36.596,48.882l2.127,0.965l10.824-23.854  c1.594,0.051,3.082,0.455,4.557,1.239c0.457,0.241,0.919,0.526,1.375,0.845c0.904,0.631,1.811,1.411,2.77,2.383  c0.399,0.406,0.801,0.838,1.229,1.319c0.89,1.004,1.761,2.081,2.568,3.096c0.2,0.252,0.4,0.504,0.602,0.757  c0.196,0.249,0.393,0.497,0.591,0.745c0.822,1.035,1.712,2.136,2.629,3.168c0.447,0.505,0.871,0.958,1.292,1.385  c1.034,1.051,2.021,1.896,3.014,2.592c0.514,0.357,1.037,0.68,1.556,0.955c0.248,0.132,0.5,0.256,0.75,0.369  c1.571,0.713,3.235,1.077,4.943,1.079l0.565,0.001L89.4,20.775L88.043,20.773z M77.375,17.11c1.322,1.419,2.715,2.681,4.251,3.627  c-0.819,1.805-1.638,3.609-2.456,5.415c-1.537-0.946-2.931-2.208-4.252-3.627C75.737,20.72,76.556,18.916,77.375,17.11z   M74.917,22.534c-0.82,1.805-1.639,3.609-2.457,5.415c-1.321-1.419-2.571-2.996-3.822-4.573c0.819-1.805,1.638-3.61,2.458-5.415  C72.345,19.539,73.595,21.115,74.917,22.534z M69.734,7.968c1.322,1.419,2.572,2.996,3.822,4.573  c-0.819,1.805-1.638,3.609-2.457,5.415c-1.25-1.577-2.5-3.154-3.821-4.573C68.098,11.578,68.916,9.773,69.734,7.968z M67.275,13.392  c-0.818,1.805-1.637,3.609-2.456,5.414c-1.322-1.419-2.715-2.68-4.251-3.626c0.819-1.805,1.638-3.609,2.457-5.415  C64.562,10.711,65.954,11.973,67.275,13.392z M60.378,2.61c1.895,0.157,3.573,0.788,5.109,1.734  c-0.819,1.805-1.638,3.61-2.456,5.415c-1.537-0.946-3.216-1.577-5.11-1.734C58.74,6.22,59.559,4.415,60.378,2.61z M53.001,18.869  c0.818-1.805,1.637-3.609,2.457-5.415c1.894,0.157,3.572,0.789,5.109,1.734c-0.82,1.805-1.639,3.61-2.457,5.415  C56.573,19.657,54.895,19.026,53.001,18.869z M59.899,29.651c-1.322-1.419-2.715-2.681-4.251-3.627  c0.818-1.805,1.637-3.609,2.457-5.415c1.535,0.946,2.929,2.208,4.251,3.627C61.536,26.042,60.718,27.845,59.899,29.651z   M62.357,24.227c0.819-1.805,1.638-3.61,2.457-5.415c1.322,1.419,2.572,2.996,3.822,4.573c-0.82,1.805-1.639,3.609-2.457,5.415  C64.929,27.222,63.679,25.646,62.357,24.227z M67.539,38.792c-1.321-1.419-2.571-2.996-3.821-4.572  c0.818-1.806,1.637-3.609,2.457-5.415c1.25,1.577,2.499,3.153,3.821,4.572C69.177,35.183,68.357,36.987,67.539,38.792z   M69.998,33.369c0.818-1.805,1.637-3.609,2.457-5.415c1.321,1.42,2.714,2.682,4.251,3.627c-0.82,1.806-1.639,3.609-2.457,5.415  C72.712,36.049,71.319,34.788,69.998,33.369z M76.896,44.151c-1.895-0.158-3.574-0.788-5.109-1.734  c0.818-1.806,1.637-3.609,2.457-5.415c1.535,0.946,3.215,1.577,5.108,1.734C78.533,40.542,77.715,42.345,76.896,44.151z   M81.817,33.307c-1.895-0.158-3.574-0.789-5.11-1.734c0.819-1.806,1.638-3.609,2.456-5.415c1.537,0.947,3.217,1.577,5.11,1.734  C83.454,29.697,82.636,31.501,81.817,33.307z"></path></g><g id="SvgjsG13791" featurekey="nameFeature-0" transform="matrix(0.7671065605777272,0,0,0.7671065605777272,119.60110460313098,9.224299805741873)" fill="#252a34"><path d="M0.52 40 c0 0 1.88 -2.36 1.88 -4.76 l0 -18.44 c0 -2.4 -1.88 -4.8 -1.88 -4.8 l12.16 0 s-0.454 1.5708 0.23641 4.2232 l3.6836 11.817 l3.6836 -11.817 c0.69 -2.6524 0.23641 -4.2232 0.23641 -4.2232 l12.16 0 s-1.88 2.4 -1.88 4.8 l0 18.44 c0 2.4 1.88 4.76 1.88 4.76 l-10.96 0 s1.88 -2.36 1.88 -4.76 l0 -10.76 l-5 11.92 l-4 0 l-5 -11.92 l0 10.76 c0 2.4 1.88 4.76 1.88 4.76 l-10.96 0 z M13.44 36.4 c0 0 0.36 -1.88 -0.84 -4.76 l2 4.76 l-1.16 0 z M18.6 36.4 l2 -4.76 c-1.2 2.88 -0.84 4.76 -0.84 4.76 l-1.16 0 z M32.81121 40 c0 0 1.9932 -1.5804 3.0424 -4.7728 l6.0636 -18.454 c0.9864 -3.0024 0.41404 -4.7736 0.41404 -4.7736 l12.709 0 s-0.5724 1.7712 0.41404 4.7736 l0 0 l6.0636 18.454 c1.0492 3.1924 3.0424 4.7724 3.0424 4.7724 l-11.749 0 s1.4008 -1.644 0.51436 -4.72 l-9.28 0 c-0.8864 3.076 0.51436 4.72 0.51436 4.72 l-11.749 0 z M45.68600000000001 29.48 l6 0 l-3 -10.48 z M64.67999999999999 40 c0 0 1.88 -2.36 1.88 -4.76 l0 -18.44 c0 -2.4 -1.88 -4.8 -1.88 -4.8 l21.48 0 l0 8.28 s-2.4 -1.88 -4.8 -1.88 l-6.8 0 l0 5.2 l2.8 0 c2.4 0 4.8 -1.88 4.8 -1.88 l0 9.36 s-2.4 -1.88 -4.8 -1.88 l-2.8 0 l0 4.4 l6.8 0 c2.4 0 4.8 -1.88 4.8 -1.88 l0 8.28 l-21.48 0 z M95.96 40.64 c-3.44 0 -8.2 -1.48 -8.2 -1.48 l2.8 -7.96 s1.88 3.8 5.2 3.8 c2.68 0 4.36 -1.16 4.36 -2.92 c0 -3.2 -11.76 -3.3984 -11.76 -11.52 c0 -5.96 4.92 -9.12 11.64 -9.12 c3.32 0 7.36 1.8 7.36 1.8 l-2.76 7.52 s-2.24 -3.96 -4.8 -3.96 c-2.16 0 -3.36 1.36 -3.36 2.68 c0 3.12 12.08 3.64 12.08 11.6 c0 5.92 -5.52 9.56 -12.56 9.56 z M118.32 40.64 c-3.44 0 -8.2 -1.48 -8.2 -1.48 l2.8 -7.96 s1.88 3.8 5.2 3.8 c2.68 0 4.36 -1.16 4.36 -2.92 c0 -3.2 -11.76 -3.3984 -11.76 -11.52 c0 -5.96 4.92 -9.12 11.64 -9.12 c3.32 0 7.36 1.8 7.36 1.8 l-2.76 7.52 s-2.24 -3.96 -4.8 -3.96 c-2.16 0 -3.36 1.36 -3.36 2.68 c0 3.12 12.08 3.64 12.08 11.6 c0 5.92 -5.52 9.56 -12.56 9.56 z"></path></g><g id="SvgjsG13792" featurekey="sloganFeature-0" transform="matrix(0.9466205619404043,0,0,0.9466205619404043,119.18647403123795,54.61065231601246)" fill="#252a34"><path d="M8.0762 20.19531 c-4.1504 0 -7.2168 -2.8223 -7.2168 -7.2559 s3.0664 -7.2461 7.2168 -7.2461 c3.1445 0 5.6641 1.6113 6.6699 4.2871 l-2.7344 0.99609 c-0.625 -1.6406 -2.1191 -2.5879 -3.9355 -2.5879 c-2.4316 0 -4.2969 1.6992 -4.2969 4.5508 s1.8652 4.5605 4.2969 4.5605 c1.8164 0 3.3105 -0.95703 3.9355 -2.5977 l2.7344 0.99609 c-1.0059 2.6758 -3.5254 4.2969 -6.6699 4.2969 z M23.398465625 20.19531 c-4.1504 0 -7.2168 -2.832 -7.2168 -7.2559 c0 -4.4336 3.0664 -7.2461 7.2168 -7.2461 c4.1406 0 7.207 2.8125 7.207 7.2461 c0 4.4238 -3.0664 7.2559 -7.207 7.2559 z M23.398465625 17.5098 c2.4316 0 4.2969 -1.709 4.2969 -4.5703 c0 -2.8516 -1.8652 -4.5508 -4.2969 -4.5508 s-4.2969 1.6992 -4.2969 4.5508 c0 2.8613 1.8652 4.5703 4.2969 4.5703 z M42.939609375 5.888999999999999 l2.9199 0 l0 14.111 l-3.3887 0 l-6.25 -10.088 l0 10.088 l-2.9199 0 l0 -14.111 l3.3496 0 l6.2891 10.029 l0 -10.029 z M54.199246875 20.19531 c-3.0273 0 -5.3906 -1.4551 -5.8203 -4.1016 l3.0273 -0.69336 c0.19531 1.582 1.3574 2.4023 2.9102 2.4023 c1.1914 0 2.1387 -0.52734 2.1289 -1.7188 c-0.0097656 -1.3281 -1.5723 -1.748 -3.291 -2.2754 c-2.0703 -0.64453 -4.2871 -1.4063 -4.2871 -4.0039 c0 -2.627 2.1484 -4.1113 4.9805 -4.1113 c2.4805 0 4.9805 1.0059 5.5469 3.7109 l-2.832 0.70313 c-0.26367 -1.4063 -1.2109 -2.0215 -2.5391 -2.0215 c-1.1816 0 -2.1875 0.48828 -2.1875 1.6504 c0 1.084 1.3867 1.4453 2.9883 1.9238 c2.1289 0.64453 4.6484 1.4648 4.6484 4.2773 c0 2.998 -2.5098 4.2578 -5.2734 4.2578 z M67.4023625 20.19531 c-3.0957 0 -5.5176 -1.582 -5.5176 -5.1367 l0 -9.1699 l2.9297 0 l0 8.7695 c0 2.1484 1.1426 2.9492 2.5879 2.9492 c1.4551 0 2.6074 -0.81055 2.6074 -2.9492 l0 -8.7695 l2.9297 0 l0 9.1699 c0 3.5547 -2.4316 5.1367 -5.5371 5.1367 z M79.22855625 17.4121 l4.4238 0 l0 2.5879 l-7.3535 0 l0 -14.111 l2.9297 0 l0 11.523 z M94.0725 5.888999999999999 l0 2.5781 l-3.3496 0 l0 11.533 l-2.9004 0 l0 -11.533 l-3.3691 0 l0 -2.5781 l9.6191 0 z M102.539090625 20.19531 c-4.1504 0 -7.2168 -2.832 -7.2168 -7.2559 c0 -4.4336 3.0664 -7.2461 7.2168 -7.2461 c4.1406 0 7.207 2.8125 7.207 7.2461 c0 4.4238 -3.0664 7.2559 -7.207 7.2559 z M102.539090625 17.5098 c2.4316 0 4.2969 -1.709 4.2969 -4.5703 c0 -2.8516 -1.8652 -4.5508 -4.2969 -4.5508 s-4.2969 1.6992 -4.2969 4.5508 c0 2.8613 1.8652 4.5703 4.2969 4.5703 z M119.892534375 20 l-3.6719 -6.2109 l-0.84961 0 l0 6.2109 l-2.9297 0 l0 -14.111 l5.1172 0 c3.1934 0 4.541 1.8848 4.541 4.2188 c0 1.8945 -1.0742 3.125 -2.9883 3.5352 l4.248 6.3574 l-3.4668 0 z M115.371134375 8.32 l0 3.3691 l1.7285 0 c1.5625 0 2.1973 -0.66406 2.1973 -1.6797 c0 -1.0059 -0.63477 -1.6895 -2.1973 -1.6895 l-1.7285 0 z M125.507840625 20 l0 -14.111 l2.9297 0 l0 14.111 l-2.9297 0 z M141.52390625 20 l-1.0254 -2.9102 l-5.9277 0 l-1.0254 2.9102 l-2.998 0 l5.1953 -14.111 l3.584 0 l5.1953 14.111 l-2.998 0 z M135.42970625 14.6387 l4.209 0 l-2.0996 -5.9863 z M161.279765625 20 l-1.0254 -2.9102 l-5.9277 0 l-1.0254 2.9102 l-2.998 0 l5.1953 -14.111 l3.584 0 l5.1953 14.111 l-2.998 0 z M155.185565625 14.6387 l4.209 0 l-2.0996 -5.9863 z M171.6211125 20.19531 c-3.0957 0 -5.5176 -1.582 -5.5176 -5.1367 l0 -9.1699 l2.9297 0 l0 8.7695 c0 2.1484 1.1426 2.9492 2.5879 2.9492 c1.4551 0 2.6074 -0.81055 2.6074 -2.9492 l0 -8.7695 l2.9297 0 l0 9.1699 c0 3.5547 -2.4316 5.1367 -5.5371 5.1367 z M188.70140625 5.888999999999999 l0 2.5781 l-3.3496 0 l0 11.533 l-2.9004 0 l0 -11.533 l-3.3691 0 l0 -2.5781 l9.6191 0 z M197.167996875 20.19531 c-4.1504 0 -7.2168 -2.832 -7.2168 -7.2559 c0 -4.4336 3.0664 -7.2461 7.2168 -7.2461 c4.1406 0 7.207 2.8125 7.207 7.2461 c0 4.4238 -3.0664 7.2559 -7.207 7.2559 z M197.167996875 17.5098 c2.4316 0 4.2969 -1.709 4.2969 -4.5703 c0 -2.8516 -1.8652 -4.5508 -4.2969 -4.5508 s-4.2969 1.6992 -4.2969 4.5508 c0 2.8613 1.8652 4.5703 4.2969 4.5703 z M223.242140625 20 l-2.9199 0 l-0.92773 -10.635 l-3.5742 10.635 l-1.8945 0 l-3.5742 -10.635 l-0.9375 10.635 l-2.9297 0 l1.1816 -14.111 l4.1797 0 l3.0078 8.8574 l3.0469 -8.8574 l4.1797 0 z M232.558621875 20.19531 c-4.1504 0 -7.2168 -2.832 -7.2168 -7.2559 c0 -4.4336 3.0664 -7.2461 7.2168 -7.2461 c4.1406 0 7.207 2.8125 7.207 7.2461 c0 4.4238 -3.0664 7.2559 -7.207 7.2559 z M232.558621875 17.5098 c2.4316 0 4.2969 -1.709 4.2969 -4.5703 c0 -2.8516 -1.8652 -4.5508 -4.2969 -4.5508 s-4.2969 1.6992 -4.2969 4.5508 c0 2.8613 1.8652 4.5703 4.2969 4.5703 z M250.644765625 5.888999999999999 l0 2.5781 l-3.3496 0 l0 11.533 l-2.9004 0 l0 -11.533 l-3.3691 0 l0 -2.5781 l9.6191 0 z M252.86135625 20 l0 -14.111 l2.9297 0 l0 14.111 l-2.9297 0 z M268.408421875 5.888999999999999 l3.1152 0 l-5.2148 14.111 l-3.2227 0 l-5.1855 -14.111 l3.1055 0 l3.7012 10.693 z M283.08640625 20 l-1.0254 -2.9102 l-5.9277 0 l-1.0254 2.9102 l-2.998 0 l5.1953 -14.111 l3.584 0 l5.1953 14.111 l-2.998 0 z M276.99220625 14.6387 l4.209 0 l-2.0996 -5.9863 z"></path></g></svg>